<svg xmlns="http://www.w3.org/2000/svg" width="40" height="40" viewBox="0 0 40 40"><g transform="translate(-313.456 -59)"><rect width="40" height="40" rx="8" transform="translate(313.456 59)" fill="rgba(18,15,22,0.04)"/><path d="M14.133,6.859a6.949,6.949,0,0,1,1.149.215,4.9,4.9,0,0,1,3.734,4.8v6.134l.448.45.374.376H8.331l.374-.376.448-.45V11.873a4.9,4.9,0,0,1,3.734-4.8,8.509,8.509,0,0,1,1.149-.215m.048-3.484a1.47,1.47,0,0,0-1.493,1.5v.7a6.48,6.48,0,0,0-4.976,6.3v5.5l-1.991,2v1h16.92v-1l-1.991-2v-5.5a6.48,6.48,0,0,0-4.976-6.3v-.7a1.47,1.47,0,0,0-1.493-1.5Zm1.991,18H12.094a1.991,1.991,0,1,0,3.981,0Z" transform="translate(319.331 66.125)" fill="#120f16" stroke="#120f16" stroke-width="0.25"/><g transform="translate(334.456 68)" fill="#ff0101" stroke="#fff" stroke-width="2"><circle cx="5" cy="5" r="5" stroke="none"/><circle cx="5" cy="5" r="4" fill="none"/></g></g></svg>